#!OML:ASF I:\Actors\actors\Patient Classification 1\Patient 1\Session 1\Subject1.ASF
:FULLY-SPECIFIED
:DEGREES
184
root 1.06373 17.5899 9.22216 12.9922 0.203572 -8.74092
lowerback 2.34098 0.509959 7.1535
upperback -10.2785 1.54768 2.1709
thorax -12.3496 0.180178 -1.82076
lowerneck -14.0888 -4.49174 -1.49283
upperneck 7.92111 -6.70792 8.30176
head 5.02761 -2.78217 2.25865
rclavicle 5.14355e-015 -1.74931e-014
rhumerus -25.1909 55.108 -101.107
rradius 112.035
rwrist -19.3167
rhand -15.579 306.047
rfingers 7.12502
rthumb 10.6063 276.334
lclavicle 5.14355e-015 -1.74931e-014
lhumerus -37.3545 -50.9425 107.722
lradius 105.44
lwrist -9.76649
lhand -55.2602 -58.9953
lfingers 7.12502
lthumb -27.629 328.996
rfemur -6.79172 25.871 23.6816
rtibia 3.50849
rfoot -13.7897 -24.637
rtoes -2.28234
lfemur 2.33505 -47.7409 -9.92331
ltibia -4.54229
lfoot -26.2526 53.3455
ltoes 12.1827
185
root 1.0756 17.6163 9.26067 13.1084 0.437157 -8.85174
lowerback 1.63807 0.660716 7.81018
upperback -10.4056 1.71204 1.85203
thorax -12.0393 0.184205 -2.53986
lowerneck -14.0249 -4.60517 -1.46968
upperneck 9.30974 -7.0184 8.56959
head 5.47692 -2.8729 2.30281
rclavicle 1.36664e-014 -1.74931e-014
rhumerus -21.6708 56.2428 -96.9086
rradius 114.015
rwrist -19.9467
rhand -16.4848 304.674
rfingers 7.12502
rthumb 9.73245 274.919
lclavicle 1.36664e-014 -1.74931e-014
lhumerus -34.4254 -53.1116 104.65
lradius 106.702
lwrist -8.73666
lhand -55.2836 -59.0286
lfingers 7.12502
lthumb -27.6514 328.959
rfemur -6.62479 26.1698 23.8316
rtibia 3.25834
rfoot -13.8813 -25.2449
rtoes -2.20686
lfemur 2.31437 -48.0345 -9.77248
ltibia -4.57878
lfoot -26.7794 53.3258
ltoes 12.4042
186
root 1.08609 17.6471 9.30279 13.3303 0.83868 -8.71659
lowerback 1.06592 0.741217 7.66778
upperback -10.7101 1.77248 1.85332
thorax -12.0385 0.222792 -2.45494
lowerneck -13.9771 -4.7953 -1.77369
upperneck 10.5986 -7.32428 8.52964
head 5.89829 -2.99687 2.30382
rclavicle -1.41634e-015 1.39149e-015
rhumerus -20.7116 55.9342 -94.4436
rradius 116.086
rwrist -18.8425
rhand -15.8125 303.672
rfingers 7.12502
rthumb 10.381 273.949
lclavicle -1.41634e-015 1.39149e-015
lhumerus -32.2063 -54.4562 102.64
lradius 107.895
lwrist -8.7826
lhand -55.5776 -59.3087
lfingers 7.12502
lthumb -27.9325 328.634
rfemur -6.67081 26.2873 23.66
rtibia 3.185
rfoot -14.0777 -25.8482
rtoes -1.94906
lfemur 1.81767 -47.886 -9.53819
ltibia -4.5595
lfoot -26.1755 52.9562
ltoes 11.7651
187
root 1.09528 17.676 9.34944 13.4866 1.34895 -8.53029
lowerback 0.139669 0.753398 7.55169
upperback -10.7793 1.68401 1.7781
thorax -11.5561 0.20391 -2.4473
lowerneck -13.9986 -5.01018 -1.74995
upperneck 11.5133 -7.67522 8.34855
head 6.20103 -3.15039 2.20242
rclavicle 1.68967e-015 -4.77083e-015
rhumerus -20.2533 55.9833 -92.6432
rradius 117.983
rwrist -18.7247
rhand -17.0835 303.386
rfingers 7.12502
rthumb 9.15479 273.605
lclavicle 1.68967e-015 -4.77083e-015
lhumerus -30.7426 -55.5192 101.126
lradius 109.251
lwrist -8.69269
lhand -55.1694 -61.0552
lfingers 7.12502
lthumb -27.5422 326.95
rfemur -6.70542 26.0231 23.4818
rtibia 3.23236
rfoot -14.1927 -26.2235
rtoes -1.84655
lfemur 1.34352 -47.6673 -9.38421
ltibia -4.51873
lfoot -25.3286 52.5238
ltoes 10.8721
188
root 1.10415 17.7011 9.39846 13.4935 1.94011 -8.42124
lowerback -0.334675 0.655808 7.48285
upperback -11.0083 1.51299 1.74724
thorax -11.551 0.122185 -2.41786
lowerneck -13.8663 -5.02412 -1.66583
upperneck 12.5539 -7.75865 8.06997
head 6.49813 -3.18031 2.08954
rclavicle 3.30231e-014 -4.35338e-014
rhumerus -21.0955 55.8286 -92.2237
rradius 120.177
rwrist -19.4734
rhand -18.7796 303.571
rfingers 7.12502
rthumb 7.51789 273.725
lclavicle 3.30231e-014 -4.35338e-014
lhumerus -31.4465 -56.3956 101.627
lradius 110.305
lwrist -8.42463
lhand -57.163 -58.865
lfingers 7.12502
lthumb -29.4471 328.821
rfemur -6.59823 25.5538 23.4875
rtibia 3.34587
rfoot -14.3421 -26.4462
rtoes -1.26932
lfemur 1.02515 -46.992 -9.22698
ltibia -4.53765
lfoot -23.8482 51.7008
ltoes 9.46742
189
root 1.11272 17.7203 9.44633 13.3122 2.5982 -8.3299
lowerback -1.05196 0.522576 7.33608
upperback -10.8809 1.25237 1.81312
thorax -10.9911 0.0356982 -2.23517
lowerneck -13.9156 -5.12945 -1.84738
upperneck 12.955 -7.88451 7.97202
head 6.64339 -3.24423 2.07121
rclavicle -1.50579e-014 4.07509e-014
rhumerus -22.7276 55.2851 -93.1517
rradius 121.392
rwrist -19.3006
rhand -19.3205 303.726
rfingers 7.12502
rthumb 6.99573 273.862
lclavicle -1.50579e-014 4.07509e-014
lhumerus -32.7486 -56.4279 103.301
lradius 111.029
lwrist -9.08746
lhand -57.0712 -60.768
lfingers 7.12502
lthumb -29.3595 326.933
rfemur -6.30077 25.0645 23.6179
rtibia 3.56631
rfoot -14.7386 -26.605
rtoes 0.100109
lfemur 0.841702 -45.6049 -9.13363
ltibia -4.54196
lfoot -21.6128 50.1695
ltoes 7.40512
190
root 1.11978 17.7297 9.49083 12.9492 3.20305 -8.20019
lowerback -1.7122 0.420716 7.28352
upperback -10.4785 1.01798 1.74044
thorax -10.148 -0.0422598 -2.26468
lowerneck -14.2538 -5.34082 -2.28255
upperneck 13.1041 -8.16939 8.40178
head 6.80206 -3.35271 2.23973
rclavicle -1.72446e-014 -9.34288e-015
rhumerus -25.7712 53.8885 -96.0583
rradius 121.26
rwrist -17.1256
rhand -19.3512 306.275
rfingers 7.12502
rthumb 6.96617 276.41
lclavicle -1.72446e-014 -9.34288e-015
lhumerus -33.9267 -56.5319 105.293
lradius 110.298
lwrist -10.4065
lhand -57.3793 -63.0468
lfingers 7.12502
lthumb -29.6536 324.603
rfemur -5.87388 24.3284 23.7638
rtibia 3.96632
rfoot -15.1897 -26.3951
rtoes 0.829121
lfemur 0.887631 -44.0769 -9.28964
ltibia -4.40939
lfoot -19.6198 48.3816
ltoes 5.31394
191
root 1.12467 17.7246 9.53035 12.4665 3.73503 -8.142
lowerback -1.81095 0.312856 7.37717
upperback -10.2102 0.839783 1.59019
thorax -9.79838 -0.128798 -2.46763
lowerneck -14.4368 -5.48114 -2.6069
upperneck 13.0914 -8.38799 8.96112
head 6.8831 -3.42138 2.44322
rclavicle -9.44227e-016 3.16068e-014
rhumerus -29.2873 51.7866 -99.8469
rradius 120.141
rwrist -14.7089
rhand -16.5125 305.299
rfingers 7.12502
rthumb 9.70571 275.543
lclavicle -9.44227e-016 3.16068e-014
lhumerus -35.9167 -56.1151 107.938
lradius 108.551
lwrist -11.6749
lhand -57.5213 -60.9773
lfingers 7.12502
lthumb -29.7892 326.648
rfemur -5.40184 23.5 24.0039
rtibia 4.50837
rfoot -15.6226 -25.9506
rtoes 0.734496
lfemur 1.03342 -42.4837 -9.45106
ltibia -4.14556
lfoot -17.9764 46.4621
ltoes 3.09368
192
root 1.12837 17.7005 9.56577 11.952 4.23923 -8.15494
lowerback -1.78487 0.168408 7.51986
upperback -10.0197 0.633167 1.4672
thorax -9.61946 -0.238698 -2.667
lowerneck -14.3797 -5.46031 -2.66529
upperneck 12.9333 -8.39277 9.31136
head 6.8428 -3.40365 2.56647
rclavicle 7.40473e-015 1.51076e-014
rhumerus -33.042 49.6649 -104.034
rradius 117.994
rwrist -14.2381
rhand -17.134 307.997
rfingers 7.12502
rthumb 9.10604 278.214
lclavicle 7.40473e-015 1.51076e-014
lhumerus -38.2537 -55.3746 110.583
lradius 106.304
lwrist -11.4175
lhand -56.3847 -61.6118
lfingers 7.12502
lthumb -28.7038 326.203
rfemur -4.9545 22.788 24.3126
rtibia 5.10908
rfoot -16.1088 -25.5817
rtoes 0.396009
lfemur 1.23307 -40.9829 -9.54921
ltibia -3.8675
lfoot -16.7747 44.5981
ltoes 1.06336
193
root 1.13112 17.6573 9.59912 11.4684 4.67258 -8.21815
lowerback -1.69711 0.0257206 7.79687
upperback -9.97766 0.44542 1.29905
thorax -9.65013 -0.363045 -2.98904
lowerneck -13.9356 -5.37968 -2.43073
upperneck 12.6656 -8.30902 9.32456
head 6.66646 -3.37337 2.55243
rclavicle -1.83876e-015 3.37934e-014
rhumerus -35.3084 48.5767 -107.148
rradius 115.357
rwrist -14.7641
rhand -17.3637 308.815
rfingers 7.12502
rthumb 8.88438 279.022
lclavicle -1.83876e-015 3.37934e-014
lhumerus -40.406 -54.3041 112.582
lradius 103.989
lwrist -10.6559
lhand -55.9177 -61.314
lfingers 7.12502
lthumb -28.2575 326.575
rfemur -4.54824 22.124 24.6493
rtibia 5.68459
rfoot -16.5917 -25.2586
rtoes -0.0600173
lfemur 1.59746 -39.9876 -9.68681
ltibia -3.67672
lfoot -16.1297 43.2644
ltoes -0.256087
